<?xml version="1.0" encoding="UTF-8" standalone="no"?>
<!DOCTYPE svg PUBLIC "-//W3C//DTD SVG 1.1//EN"
 "http://www.w3.org/Graphics/SVG/1.1/DTD/svg11.dtd">
<!-- Generated by graphviz version 2.38.0 (20140413.2041)
 -->
<!-- Title: G Pages: 1 -->
<svg width="380pt" height="608pt"
 viewBox="0.00 0.00 379.99 608.00" xmlns="http://www.w3.org/2000/svg" xmlns:xlink="http://www.w3.org/1999/xlink">
<g id="graph0" class="graph" transform="scale(1 1) rotate(0) translate(4 604)">
<title>G</title>
<polygon fill="white" stroke="none" points="-4,4 -4,-604 375.987,-604 375.987,4 -4,4"/>
<g id="clust1" class="cluster"><title>cluster_Global</title>
<path fill="none" stroke="gray" d="M202.987,-8C202.987,-8 351.987,-8 351.987,-8 357.987,-8 363.987,-14 363.987,-20 363.987,-20 363.987,-580 363.987,-580 363.987,-586 357.987,-592 351.987,-592 351.987,-592 202.987,-592 202.987,-592 196.987,-592 190.987,-586 190.987,-580 190.987,-580 190.987,-20 190.987,-20 190.987,-14 196.987,-8 202.987,-8"/>
<text text-anchor="middle" x="277.487" y="-579.2" font-family="Times New Roman,serif" font-size="11.00" fill="gray">Global</text>
</g>
<g id="clust2" class="cluster"><title>cluster_\Slothsoft</title>
<path fill="none" stroke="gray" d="M210.987,-16C210.987,-16 343.987,-16 343.987,-16 349.987,-16 355.987,-22 355.987,-28 355.987,-28 355.987,-552 355.987,-552 355.987,-558 349.987,-564 343.987,-564 343.987,-564 210.987,-564 210.987,-564 204.987,-564 198.987,-558 198.987,-552 198.987,-552 198.987,-28 198.987,-28 198.987,-22 204.987,-16 210.987,-16"/>
<text text-anchor="middle" x="277.487" y="-551.2" font-family="Times New Roman,serif" font-size="11.00" fill="gray">Slothsoft</text>
</g>
<g id="clust3" class="cluster"><title>cluster_\Slothsoft\Dev</title>
<path fill="none" stroke="gray" d="M218.987,-140C218.987,-140 335.987,-140 335.987,-140 341.987,-140 347.987,-146 347.987,-152 347.987,-152 347.987,-524 347.987,-524 347.987,-530 341.987,-536 335.987,-536 335.987,-536 218.987,-536 218.987,-536 212.987,-536 206.987,-530 206.987,-524 206.987,-524 206.987,-152 206.987,-152 206.987,-146 212.987,-140 218.987,-140"/>
<text text-anchor="middle" x="277.487" y="-523.2" font-family="Times New Roman,serif" font-size="11.00" fill="gray">Dev</text>
</g>
<g id="clust4" class="cluster"><title>cluster_\Slothsoft\Dev\Bahn</title>
<path fill="none" stroke="gray" d="M249.487,-436C249.487,-436 305.487,-436 305.487,-436 311.487,-436 317.487,-442 317.487,-448 317.487,-448 317.487,-496 317.487,-496 317.487,-502 311.487,-508 305.487,-508 305.487,-508 249.487,-508 249.487,-508 243.487,-508 237.487,-502 237.487,-496 237.487,-496 237.487,-448 237.487,-448 237.487,-442 243.487,-436 249.487,-436"/>
<text text-anchor="middle" x="277.487" y="-495.2" font-family="Times New Roman,serif" font-size="11.00" fill="gray">Bahn</text>
</g>
<g id="clust5" class="cluster"><title>cluster_\Slothsoft\Dev\Twitch</title>
<path fill="none" stroke="gray" d="M249.487,-248C249.487,-248 305.487,-248 305.487,-248 311.487,-248 317.487,-254 317.487,-260 317.487,-260 317.487,-416 317.487,-416 317.487,-422 311.487,-428 305.487,-428 305.487,-428 249.487,-428 249.487,-428 243.487,-428 237.487,-422 237.487,-416 237.487,-416 237.487,-260 237.487,-260 237.487,-254 243.487,-248 249.487,-248"/>
<text text-anchor="middle" x="277.487" y="-415.2" font-family="Times New Roman,serif" font-size="11.00" fill="gray">Twitch</text>
</g>
<g id="clust6" class="cluster"><title>cluster_\Slothsoft\Parser</title>
<path fill="none" stroke="gray" d="M244.987,-24C244.987,-24 309.987,-24 309.987,-24 315.987,-24 321.987,-30 321.987,-36 321.987,-36 321.987,-120 321.987,-120 321.987,-126 315.987,-132 309.987,-132 309.987,-132 244.987,-132 244.987,-132 238.987,-132 232.987,-126 232.987,-120 232.987,-120 232.987,-36 232.987,-36 232.987,-30 238.987,-24 244.987,-24"/>
<text text-anchor="middle" x="277.487" y="-119.2" font-family="Times New Roman,serif" font-size="11.00" fill="gray">Parser</text>
</g>
<g id="clust7" class="cluster"><title>cluster_\Slothsoft\Parser\Twine</title>
<path fill="none" stroke="gray" d="M252.987,-32C252.987,-32 301.987,-32 301.987,-32 307.987,-32 313.987,-38 313.987,-44 313.987,-44 313.987,-92 313.987,-92 313.987,-98 307.987,-104 301.987,-104 301.987,-104 252.987,-104 252.987,-104 246.987,-104 240.987,-98 240.987,-92 240.987,-92 240.987,-44 240.987,-44 240.987,-38 246.987,-32 252.987,-32"/>
<text text-anchor="middle" x="277.487" y="-91.2" font-family="Times New Roman,serif" font-size="11.00" fill="gray">Twine</text>
</g>
<!-- \\Slothsoft\\Dev\\Bahn\\Request -->
<g id="node1" class="node"><title>\\Slothsoft\\Dev\\Bahn\\Request</title>
<polygon fill="none" stroke="black" points="309.487,-480 245.487,-480 245.487,-444 309.487,-444 309.487,-480"/>
<text text-anchor="middle" x="277.487" y="-459.2" font-family="Courier,monospace" font-size="11.00">Request</text>
</g>
<!-- \\Slothsoft\\Dev\\Twitch\\Manager -->
<g id="node2" class="node"><title>\\Slothsoft\\Dev\\Twitch\\Manager</title>
<polygon fill="none" stroke="black" points="309.487,-400 245.487,-400 245.487,-364 309.487,-364 309.487,-400"/>
<text text-anchor="middle" x="277.487" y="-379.2" font-family="Courier,monospace" font-size="11.00">Manager</text>
</g>
<!-- \\Slothsoft\\Dev\\Twitch\\User -->
<g id="node3" class="node"><title>\\Slothsoft\\Dev\\Twitch\\User</title>
<polygon fill="none" stroke="black" points="304.487,-346 250.487,-346 250.487,-310 304.487,-310 304.487,-346"/>
<text text-anchor="middle" x="277.487" y="-325.2" font-family="Courier,monospace" font-size="11.00">User</text>
</g>
<!-- \\Slothsoft\\Dev\\Twitch\\Video -->
<g id="node4" class="node"><title>\\Slothsoft\\Dev\\Twitch\\Video</title>
<polygon fill="none" stroke="black" points="304.487,-292 250.487,-292 250.487,-256 304.487,-256 304.487,-292"/>
<text text-anchor="middle" x="277.487" y="-271.2" font-family="Courier,monospace" font-size="11.00">Video</text>
</g>
<!-- \\Slothsoft\\Dev\\DOMDocumentSmart -->
<g id="node5" class="node"><title>\\Slothsoft\\Dev\\DOMDocumentSmart</title>
<polygon fill="none" stroke="black" points="339.987,-238 214.987,-238 214.987,-202 339.987,-202 339.987,-238"/>
<text text-anchor="middle" x="277.487" y="-217.2" font-family="Courier,monospace" font-size="11.00">DOMDocumentSmart</text>
</g>
<!-- \\DOMDocument -->
<g id="node8" class="node"><title>\\DOMDocument</title>
<ellipse fill="none" stroke="black" cx="71.4937" cy="-220" rx="71.4873" ry="18"/>
<text text-anchor="middle" x="71.4937" y="-216.3" font-family="Times New Roman,serif" font-size="14.00" fill="gray">\DOMDocument</text>
</g>
<!-- \\Slothsoft\\Dev\\DOMDocumentSmart&#45;&gt;\\DOMDocument -->
<g id="edge1" class="edge"><title>\\Slothsoft\\Dev\\DOMDocumentSmart&#45;&gt;\\DOMDocument</title>
<path fill="none" stroke="black" d="M214.729,-220C195.468,-220 173.927,-220 153.551,-220"/>
<polygon fill="none" stroke="black" points="153.34,-216.5 143.34,-220 153.34,-223.5 153.34,-216.5"/>
</g>
<!-- \\Slothsoft\\Dev\\Email -->
<g id="node6" class="node"><title>\\Slothsoft\\Dev\\Email</title>
<polygon fill="none" stroke="black" points="304.487,-184 250.487,-184 250.487,-148 304.487,-148 304.487,-184"/>
<text text-anchor="middle" x="277.487" y="-163.2" font-family="Courier,monospace" font-size="11.00">Email</text>
</g>
<!-- \\Slothsoft\\Parser\\Twine\\Parser -->
<g id="node7" class="node"><title>\\Slothsoft\\Parser\\Twine\\Parser</title>
<polygon fill="none" stroke="black" points="305.987,-76 248.987,-76 248.987,-40 305.987,-40 305.987,-76"/>
<text text-anchor="middle" x="277.487" y="-55.2" font-family="Courier,monospace" font-size="11.00">Parser</text>
</g>
</g>
</svg>
